<?xml version="1.0" standalone="no"?><!DOCTYPE svg PUBLIC "-//W3C//DTD SVG 1.1//EN" "http://www.w3.org/Graphics/SVG/1.1/DTD/svg11.dtd"><svg t="1638499516242" class="icon" viewBox="0 0 1024 1024" version="1.1" xmlns="http://www.w3.org/2000/svg" p-id="5986" xmlns:xlink="http://www.w3.org/1999/xlink" width="200" height="200"><defs><style type="text/css"></style></defs><path d="M854.6 320.4l-247-247c-6-6-14.1-9.4-22.6-9.4H192c-17.7 0-32 14.3-32 32v832c0 17.7 14.3 32 32 32h312c4.4 0 8-3.6 8-8v-48c0-4.4-3.6-8-8-8H224V128h311v230c0 17.7 14.3 32 32 32h233v177c0 4.4 3.6 8 8 8h48c4.4 0 8-3.6 8-8V343c0-8.5-3.4-16.6-9.4-22.6zM599 155.2L769.8 326H599V155.2z" fill="#264097" p-id="5987"></path><path d="M856 815h-81v-81c0-4.4-3.6-8-8-8h-40c-4.4 0-8 3.6-8 8v81h-81c-4.4 0-8 3.6-8 8v40c0 4.4 3.6 8 8 8h81v81c0 4.4 3.6 8 8 8h40c4.4 0 8-3.6 8-8v-81h81c4.4 0 8-3.6 8-8v-40c0-4.4-3.6-8-8-8z" fill="#264097" p-id="5988"></path></svg>